<?xml version="1.0" encoding="iso-8859-1"?>
<!-- Generator: Adobe Illustrator 16.0.0, SVG Export Plug-In . SVG Version: 6.00 Build 0)  -->
<!DOCTYPE svg PUBLIC "-//W3C//DTD SVG 1.1//EN" "http://www.w3.org/Graphics/SVG/1.1/DTD/svg11.dtd">
<svg version="1.1" id="Capa_1" xmlns="http://www.w3.org/2000/svg" xmlns:xlink="http://www.w3.org/1999/xlink" x="0px" y="0px"
	 width="541.911px" height="541.911px" viewBox="0 0 541.911 541.911" style="enable-background:new 0 0 541.911 541.911;"
	 xml:space="preserve">
<g>
	<path stroke="#D80027" fill="#D80027" d="M533.13,467.826h-47.451V74.091h47.451c4.604,0,8.334-3.735,8.334-8.334c0-4.607-3.729-8.337-8.334-8.337h-49.065V8.334
		c0-4.599-3.735-8.334-8.334-8.334c-4.61,0-8.334,3.736-8.334,8.334v49.08H74.529V8.334C74.529,3.736,70.796,0,66.195,0
		c-4.61,0-8.334,3.736-8.334,8.334v49.08H8.781c-4.607,0-8.334,3.73-8.334,8.337c0,4.599,3.727,8.334,8.334,8.334h49.08v393.74
		H8.781c-4.607,0-8.334,3.735-8.334,8.334c0,4.61,3.727,8.334,8.334,8.334h49.08v49.083c0,4.599,3.724,8.334,8.334,8.334
		c4.602,0,8.334-3.735,8.334-8.334v-48.339h392.868v48.339c0,4.599,3.724,8.334,8.334,8.334c4.599,0,8.334-3.735,8.334-8.334
		v-49.083h49.065c4.604,0,8.334-3.724,8.334-8.334C541.464,471.561,537.735,467.826,533.13,467.826z M201.386,468.204H74.529
		V340.413h126.857V468.204z M201.386,334.857H74.529V207.435h126.857V334.857z M201.386,201.504H74.529V74.091h126.857V201.504z
		 M334.736,468.204H206.942V340.413h127.794V468.204z M334.736,334.857H206.942V207.435h127.794V334.857z M334.736,201.504H206.942
		V74.091h127.794V201.504z M468.083,468.204H340.292V340.413h127.791V468.204z M468.083,334.857H340.292V207.435h127.791V334.857z
		 M468.083,201.504H340.292V74.091h127.791V201.504z M323.411,323.414H218.503V218.5h104.907V323.414z"/>
</g>
<g>
</g>
<g>
</g>
<g>
</g>
<g>
</g>
<g>
</g>
<g>
</g>
<g>
</g>
<g>
</g>
<g>
</g>
<g>
</g>
<g>
</g>
<g>
</g>
<g>
</g>
<g>
</g>
<g>
</g>
</svg>
